<?xml version="1.0" encoding="utf-8"?>
<!-- Generator: Adobe Illustrator 18.0.0, SVG Export Plug-In . SVG Version: 6.00 Build 0)  -->
<!DOCTYPE svg PUBLIC "-//W3C//DTD SVG 1.1//EN" "http://www.w3.org/Graphics/SVG/1.1/DTD/svg11.dtd">
<svg version="1.1"
	 id="Capa_1" xmlns:sodipodi="http://sodipodi.sourceforge.net/DTD/sodipodi-0.dtd" xmlns:svg="http://www.w3.org/2000/svg" xmlns:rdf="http://www.w3.org/1999/02/22-rdf-syntax-ns#" xmlns:inkscape="http://www.inkscape.org/namespaces/inkscape" xmlns:cc="http://creativecommons.org/ns#" xmlns:dc="http://purl.org/dc/elements/1.1/" sodipodi:docname="github10.svg" inkscape:version="0.91 r13725"
	 xmlns="http://www.w3.org/2000/svg" xmlns:xlink="http://www.w3.org/1999/xlink" x="0px" y="0px" viewBox="28 26 49.6 48.4"
	 enable-background="new 28 26 49.6 48.4" xml:space="preserve">
<sodipodi:namedview  bordercolor="#666666" showgrid="false" fit-margin-top="0" pagecolor="#ffffff" borderopacity="1" objecttolerance="10" fit-margin-left="0" inkscape:zoom="2.36" gridtolerance="10" guidetolerance="10" inkscape:cy="48.77653" inkscape:cx="50" id="namedview37" inkscape:pageopacity="0" inkscape:pageshadow="2" inkscape:window-width="640" inkscape:current-layer="Capa_1" inkscape:window-maximized="0" inkscape:window-y="0" inkscape:window-x="0" fit-margin-bottom="0" fit-margin-right="0" inkscape:window-height="480">
	</sodipodi:namedview>
<path id="path5" inkscape:connector-curvature="0" fill="#FFFFFF" d="M74.2,38.3c-2.2-3.8-5.2-6.8-9-9c-3.8-2.2-7.9-3.3-12.4-3.3
	c-4.5,0-8.6,1.1-12.4,3.3c-3.8,2.2-6.8,5.2-9,9c-2.2,3.8-3.3,7.9-3.3,12.4c0,5.4,1.6,10.3,4.7,14.6c3.2,4.3,7.2,7.3,12.2,9
	c0.6,0.1,1,0,1.3-0.2c0.3-0.3,0.4-0.6,0.4-1c0-0.1,0-0.6,0-1.7c0-1.1,0-2.1,0-2.9l-0.7,0.1c-0.5,0.1-1.1,0.1-1.8,0.1
	c-0.7,0-1.5-0.1-2.2-0.2c-0.8-0.1-1.5-0.5-2.2-1c-0.7-0.5-1.1-1.2-1.4-2l-0.3-0.7c-0.2-0.5-0.6-1-1-1.6c-0.5-0.6-0.9-1-1.4-1.2
	l-0.2-0.2c-0.2-0.1-0.3-0.2-0.4-0.4c-0.1-0.2-0.2-0.3-0.3-0.5c-0.1-0.2,0-0.3,0.2-0.4s0.5-0.1,0.9-0.1l0.6,0.1
	c0.4,0.1,1,0.3,1.6,0.8c0.6,0.4,1.2,1,1.6,1.7c0.5,0.9,1.1,1.6,1.8,2c0.7,0.5,1.4,0.7,2.1,0.7s1.3-0.1,1.8-0.2
	c0.5-0.1,1-0.3,1.5-0.5c0.2-1.4,0.7-2.5,1.6-3.3c-1.2-0.1-2.3-0.3-3.3-0.6c-1-0.3-2-0.7-3-1.3c-1-0.6-1.9-1.3-2.6-2.2
	c-0.7-0.9-1.3-2-1.7-3.4c-0.4-1.4-0.7-3-0.7-4.8c0-2.6,0.8-4.8,2.5-6.6c-0.8-2-0.7-4.2,0.2-6.6c0.6-0.2,1.5,0,2.8,0.4
	c1.2,0.5,2.1,0.9,2.7,1.2c0.6,0.3,1,0.6,1.4,0.9c2-0.6,4.1-0.8,6.2-0.8s4.2,0.3,6.2,0.8l1.2-0.8c0.8-0.5,1.8-1,3-1.4
	c1.1-0.4,2-0.5,2.6-0.4c1,2.4,1.1,4.6,0.3,6.6c1.7,1.8,2.5,4,2.5,6.6c0,1.8-0.2,3.4-0.7,4.9c-0.4,1.4-1,2.5-1.7,3.4
	c-0.7,0.9-1.6,1.6-2.6,2.1c-1,0.6-2.1,1-3,1.3c-1,0.3-2.1,0.5-3.3,0.6c1.1,1,1.7,2.5,1.7,4.6v6.8c0,0.4,0.1,0.7,0.4,1
	c0.3,0.3,0.7,0.3,1.3,0.2c5-1.7,9.1-4.6,12.2-9c3.2-4.3,4.7-9.2,4.7-14.6C77.6,46.3,76.5,42.1,74.2,38.3L74.2,38.3z"/>
</svg>
