<?xml version="1.0" encoding="utf-8"?>
<!-- Generator: Adobe Illustrator 18.0.0, SVG Export Plug-In . SVG Version: 6.00 Build 0)  -->
<!DOCTYPE svg PUBLIC "-//W3C//DTD SVG 1.1//EN" "http://www.w3.org/Graphics/SVG/1.1/DTD/svg11.dtd">
<svg version="1.1" id="Capa_1" xmlns="http://www.w3.org/2000/svg" xmlns:xlink="http://www.w3.org/1999/xlink" x="0px" y="0px"
	 viewBox="455 270 49.7 49.7" enable-background="new 455 270 49.7 49.7" xml:space="preserve">
<path fill="#FFFFFF" d="M479.8,270c-13.7,0-24.8,11.1-24.8,24.8c0,13.7,11.1,24.8,24.8,24.8c13.7,0,24.8-11.1,24.8-24.8
	C504.7,281.1,493.5,270,479.8,270z M473.6,306.9h-6.2v-21.7h6.2V306.9z M470.7,283.8c-1.6,0-2.9-1.3-2.9-2.9s1.3-2.9,2.9-2.9
	c1.6,0,2.9,1.3,2.9,2.9C473.6,282.5,472.3,283.8,470.7,283.8z M495.3,306.9h-6.2v-13.4c0-1.6-0.4-2.7-2.4-2.7
	c-3.2,0-3.8,2.7-3.8,2.7v13.4h-6.2v-21.7h6.2v2.1c0.9-0.7,3.1-2.1,6.2-2.1c2,0,6.2,1.2,6.2,8.5V306.9z"/>
</svg>
