<svg version="1.1" id="Layer_1" xmlns="http://www.w3.org/2000/svg" viewBox="-20 -20 250 254"  xml:space="preserve">
	 <filter id="shadow">
	 <feOffset result="offOut" in="SourceAlpha" dx="4" dy="4" />
        <feComponentTransfer in="offOut" result="offOut">
    <feFuncA type="linear"  slope="0.6"/>
          </feComponentTransfer>
        <feGaussianBlur result="offOut" in="offOut" stdDeviation="12" />
        <feBlend in="SourceGraphic" in2="offOut" mode="normal" />
      </filter>
	<g filter="url(#shadow)">
		<linearGradient id="SVGID_1_" gradientUnits="userSpaceOnUse" x1="134.5677" y1="163.6987" x2="179.4894" y2="85.8921">
			<stop  offset="0" style="stop-color:#521D81"/>
			<stop  offset="0.2463" style="stop-color:#7529B9"/>
		</linearGradient>
		<polygon fill="url(#SVGID_1_)" points="185.3,89.3 185.3,160.5 161.9,174 97.9,142.5 	"/>
		<linearGradient id="SVGID_2_" gradientUnits="userSpaceOnUse" x1="74.8502" y1="76.6903" x2="110.8635" y2="139.067">
			<stop  offset="0" style="stop-color:#2E383B"/>
			<stop  offset=".35" style="stop-color:#4E6065"/>
			<stop  offset="0.7" style="stop-color:#4E6065"/>
			<stop  offset="1" style="stop-color:#2E383B"/>
		</linearGradient>
		<polygon fill="url(#SVGID_2_)" points="138.9,80.3 185.3,89.3 102.9,143.7 71,124.8 46.4,134.7 0,125.8 82.4,72.3 115,87 	"/>
		<polygon fill="#BD92E1" points="100.3,138.4 161.9,174 92.7,214 0,160.5 45.3,134.3 69.3,120.5 	"/>
		<linearGradient id="SVGID_3_" gradientUnits="userSpaceOnUse" x1="6.8461" y1="129.7926" x2="51.87" y2="51.809">
			<stop  offset="0.803" style="stop-color:#00B0B3"/>
			<stop  offset="1" style="stop-color:#00686A"/>
		</linearGradient>
		<polygon fill="url(#SVGID_3_)" points="90,73.8 0,125.8 0,53.5 23.4,40 	"/>
		<polygon fill="#2AF4FD"  points="185.3,53.5 138.9,80.3 116.1,93.5 86,76.2 23.4,40 92.7,0 	"/>
	</g>
</svg>
