<?xml version="1.0" encoding="utf-8"?>
<!-- Generator: Adobe Illustrator 18.0.0, SVG Export Plug-In . SVG Version: 6.00 Build 0)  -->
<!DOCTYPE svg PUBLIC "-//W3C//DTD SVG 1.1//EN" "http://www.w3.org/Graphics/SVG/1.1/DTD/svg11.dtd">
<svg version="1.1" id="Layer_1" xmlns="http://www.w3.org/2000/svg" xmlns:xlink="http://www.w3.org/1999/xlink" x="0px" y="0px"
	 viewBox="0 0 170.3 186.8" enable-background="new 0 0 170.3 186.8" xml:space="preserve">
<g>
	<path fill="#3695BA" d="M37.3,136.8c-11.8,0-20.4-1.2-27.5-8.1c-9-8.8-9-20.3-9-39.3c0-6,0-12.8-0.2-21c-0.1-3.4-0.2-6.6-0.3-9.5
		C-0.4,32.6-0.8,19.4,9.2,9.3c9.6-9.7,22.4-9.5,41.7-9.2c4.3,0.1,9.3,0.1,14.8,0.1L134.5,0l35.3,35.6L65.6,35.3
		c-5.7,0-10.8-0.1-15.3-0.2c-5.4-0.1-11.3-0.2-15.2,0c-0.3,5.1-0.1,14.1,0.2,22.8c0.1,3,0.2,6.2,0.3,9.7c0.2,8.7,0.2,16,0.2,21.9
		c0,4.4,0,9,0.1,12.4c3,0,6.9-0.1,10.4-0.2c5.2-0.1,11.7-0.3,19.2-0.3H112v35H65.6c-7.1,0-13.1,0.2-18.3,0.3
		C43.7,136.8,40.4,136.8,37.3,136.8z"/>
</g>
<g>
	<path fill="#265560" d="M128.5,186.8c-2.9,0-5.9,0-9.2-0.1c-4.3-0.1-9.2-0.1-14.7-0.1l-70.1,0.2L0.4,151.2l104.2,0.4
		c5.7,0,10.7,0.1,15.2,0.2c5.5,0.1,11.4,0.2,15.3,0c0.3-5.1,0.1-14.1-0.2-22.9c-0.1-3-0.2-6.2-0.3-9.6c-0.2-8.7-0.2-16-0.2-22
		c0-4.4,0-9-0.1-12.4c-3,0-6.9,0.1-10.5,0.2c-5.2,0.1-11.6,0.3-19.2,0.3H58v-35h46.7c7.1,0,13-0.2,18.3-0.3
		c17.2-0.4,28.6-0.7,37.5,8c9,8.8,9,20.3,9,39.2c0,6,0,12.8,0.2,21.1c0.1,3.4,0.2,6.5,0.3,9.5c0.8,26.3,1.1,39.6-8.9,49.7
		C153.1,185.6,142.9,186.8,128.5,186.8z"/>
</g>
</svg>
