<?xml version="1.0" encoding="utf-8"?>
<!-- Generator: Adobe Illustrator 18.0.0, SVG Export Plug-In . SVG Version: 6.00 Build 0)  -->
<!DOCTYPE svg PUBLIC "-//W3C//DTD SVG 1.1//EN" "http://www.w3.org/Graphics/SVG/1.1/DTD/svg11.dtd">
<svg version="1.1" id="Layer_1" xmlns="http://www.w3.org/2000/svg" xmlns:xlink="http://www.w3.org/1999/xlink" x="0px" y="0px"
	 viewBox="0 0 247.7 486" enable-background="new 0 0 247.7 486" xml:space="preserve">
<polygon fill="#313539" points="123.8,249.2 147.5,307.5 190.9,280.9 "/>
<polyline fill="#3C3D3B" points="194.7,238.4 123.8,249.2 190.9,280.9 "/>
<polyline fill="#EEA08F" points="43.8,298.9 81.1,322.3 147.5,307.5 123.8,249.2 47.2,247.2 22.6,261 "/>
<polygon fill="#C57F69" points="58.5,207.1 106.6,214 123.8,249.2 47.2,247.2 22.6,261 19.7,217 "/>
<polygon fill="#F09B87" points="53.5,64.1 25.7,109.5 19.7,217 58.5,207.1 106.6,214 123.8,249.2 151.9,245 154.3,77.1 106.6,59.6 
	"/>
<polygon fill="#413637" points="195,93.9 154.3,77.1 151.9,245 194.7,238.4 190.9,280.9 206.7,280.7 210.6,252.6 235,232.1 
	239.1,164.7 210.6,171.6 "/>
<polygon fill="#937563" points="38.8,328.9 43.8,298.9 81.1,322.3 147.5,307.5 190.9,280.9 206.7,280.7 185.8,372.8 174.5,407.8 
	167.9,424 166.3,447.2 154.3,464.7 140.6,433.4 113.2,407.8 "/>
<polygon fill="#241923" points="54.5,16 22.5,41.3 31.3,70 22.5,102.7 25.7,109.5 53.5,64.1 106.6,59.6 154.3,77.1 195,93.9 
	210.6,171.6 238.9,164.7 247.7,130 247.7,98.7 216,48.7 157.3,16 103.3,0 "/>
<polygon fill="#A6A0C4" points="6.8,362 36.1,322.3 38.9,328.9 113.2,407.8 140.6,433.4 154.3,464.7 166.3,447.2 167.9,424 
	185.8,372.8 195.5,346.7 206.7,378 210,430.7 195.6,455.3 177.7,418.7 177.7,464.7 157.3,486 99.3,431.3 91.3,424.7 59.3,456 0,370 
	"/>
</svg>
